<svg version="1.1" xmlns="http://www.w3.org/2000/svg" viewBox="0 0 1130.7142857142858 1171.6807591637787" width="1130.7142857142858" height="1171.6807591637787">
  <!-- svg-source:excalidraw -->
  
  <defs>
    <style>
      @font-face {
        font-family: "Virgil";
        src: url("https://excalidraw.com/Virgil.woff2");
      }
      @font-face {
        font-family: "Cascadia";
        src: url("https://excalidraw.com/Cascadia.woff2");
      }
    </style>
  </defs>
  <g stroke-linecap="round" transform="translate(40.71428571428339 651.680759163778) rotate(0 73 72.85714285714283)"><path d="M-1.42 -1.87 C36.98 1.95, 69.05 1.46, 145.79 -1.37 M-0.33 -0.69 C55.5 1.17, 110.5 0.77, 146.69 -0.36 M147.63 -0.68 C146.58 37.34, 146.92 69.7, 146.32 147.41 M146.67 0.41 C147.47 51.89, 145.65 105.35, 145.67 146.18 M146.29 145.62 C101.67 147.72, 54.35 146.5, 1.72 146.79 M145.88 144.77 C103.47 145.24, 58.51 146.43, -0.63 145.84 M1.38 145.56 C0.99 90, 0.71 32.25, -0.49 0.12 M-0.84 146.03 C1.07 113.28, 0.59 81.7, 0.6 0.98" stroke="#000000" stroke-width="1" fill="none"></path></g><g transform="translate(45.71428571428339 698.5379020209207) rotate(0 68 26)"><text x="68" y="19" font-family="Virgil, Segoe UI Emoji" font-size="20px" fill="#000000" text-anchor="middle" style="white-space: pre;" direction="ltr">s3</text><text x="68" y="45" font-family="Virgil, Segoe UI Emoji" font-size="20px" fill="#000000" text-anchor="middle" style="white-space: pre;" direction="ltr">temporario</text></g><g stroke-linecap="round" transform="translate(245.42857142856906 651.680759163778) rotate(0 73 72.85714285714283)"><path d="M1.23 1.11 C27.8 1.1, 58.92 -0.16, 147.63 -0.53 M0.84 0.41 C45.97 1.56, 90.9 0.61, 145.71 -0.89 M145.07 -0.46 C143.38 53.71, 145.72 105.03, 147.85 147.71 M145.35 -0.14 C145 47.51, 144.88 95.72, 145.03 146.22 M144.43 146.96 C86.76 144.46, 32.55 143.44, 1 147.05 M146.58 145.09 C111.6 145.19, 76.68 144.62, 0.07 144.84 M0.46 147.11 C-1.54 94.44, 0.41 39.07, -0.74 -1.26 M-0.11 146.21 C1.02 105.37, 1.7 64.85, -0.54 -1" stroke="#000000" stroke-width="1" fill="none"></path></g><g transform="translate(250.42857142856906 698.5379020209211) rotate(0 68 26)"><text x="68" y="19" font-family="Virgil, Segoe UI Emoji" font-size="20px" fill="#000000" text-anchor="middle" style="white-space: pre;" direction="ltr">s3</text><text x="68" y="45" font-family="Virgil, Segoe UI Emoji" font-size="20px" fill="#000000" text-anchor="middle" style="white-space: pre;" direction="ltr">bruto</text></g><g stroke-linecap="round" transform="translate(455.85714285714084 651.680759163778) rotate(0 73 72.85714285714283)"><path d="M-0.04 -1.88 C44.57 1.36, 86.67 0.09, 146.2 1.23 M-0.93 0.56 C46.4 0.64, 93.73 -0.3, 145.84 -0.3 M144.65 1.56 C147.4 43.79, 144.56 91.28, 144.57 145 M145.72 0.95 C145.6 41.84, 144.53 84.95, 145.91 145.48 M145.23 145.59 C96.25 143.7, 48.4 142.82, 1.56 146.62 M146.06 145.78 C108.36 144.59, 71.36 144.83, -0.08 146.49 M-1.19 144.93 C-1.92 102.42, -0.59 60.68, 0.67 0.91 M-0.87 146.56 C0.19 104.75, 0.05 61.39, -0.52 -0.21" stroke="#000000" stroke-width="1" fill="none"></path></g><g transform="translate(460.85714285714084 698.5379020209207) rotate(0 68 26)"><text x="68" y="19" font-family="Virgil, Segoe UI Emoji" font-size="20px" fill="#000000" text-anchor="middle" style="white-space: pre;" direction="ltr">s3</text><text x="68" y="45" font-family="Virgil, Segoe UI Emoji" font-size="20px" fill="#000000" text-anchor="middle" style="white-space: pre;" direction="ltr">consolidado</text></g><g stroke-linecap="round" transform="translate(664.8571428571415 651.680759163778) rotate(0 73 72.85714285714283)"><path d="M-0.21 -0.25 C56.16 0.5, 112.67 1.36, 144.21 0.67 M-0.58 0.45 C41.35 -1.38, 81.85 -0.53, 146.99 -0.22 M147.89 1.06 C146.52 43.99, 143.65 87.96, 146.24 144.6 M146.16 -0.74 C144.83 40.37, 144.33 80.37, 146.77 146.23 M144.74 144.64 C89.8 145.72, 36.94 148.7, -1.66 146.4 M146.11 145.22 C96.85 146.01, 48.04 146.72, -0.62 145.29 M1.46 146.66 C-0.2 87.05, -0.77 28.84, -1.61 -0.02 M-0.27 145.21 C0.64 113.07, -0.5 78.35, 0.65 -0.42" stroke="#000000" stroke-width="1" fill="none"></path></g><g transform="translate(669.8571428571415 698.5379020209211) rotate(0 68 26)"><text x="68" y="19" font-family="Virgil, Segoe UI Emoji" font-size="20px" fill="#000000" text-anchor="middle" style="white-space: pre;" direction="ltr">s3</text><text x="68" y="45" font-family="Virgil, Segoe UI Emoji" font-size="20px" fill="#000000" text-anchor="middle" style="white-space: pre;" direction="ltr">agregados</text></g><g stroke-linecap="round" transform="translate(250.09523809523557 138.10933059234995) rotate(0 73 72.85714285714283)"><path d="M0.99 1.57 C42.86 2.9, 84.89 0.77, 147.16 -0.37 M0.86 -0.3 C54.72 -1.74, 108.76 -0.54, 146.99 0 M144.85 1.11 C143.4 46.59, 143.62 97.05, 144.33 144.97 M145.13 -0.42 C145.46 54.92, 146.42 112.09, 145.22 144.84 M146.7 145.75 C95.18 145.49, 47 147.39, -0.57 146.39 M146.85 145.85 C103.75 147.99, 64.06 147.02, 0.18 144.84 M-0.75 144.05 C-1.26 95.21, -0.54 42.44, -0.05 -1.82 M0.66 146.21 C-1.75 95.16, -0.47 47.09, -0.07 -0.57" stroke="#000000" stroke-width="1" fill="none"></path></g><g transform="translate(255.09523809523557 197.96647344949272) rotate(0 68 13)"><text x="68" y="19" font-family="Virgil, Segoe UI Emoji" font-size="20px" fill="#000000" text-anchor="middle" style="white-space: pre;" direction="ltr">api gateway</text></g><g stroke-linecap="round" transform="translate(461.04761904761654 138.10933059234995) rotate(0 73 72.85714285714283)"><path d="M1.01 1.16 C42.58 -2.45, 90.58 -1.6, 144.58 -1.97 M0.63 -1 C29.53 0.38, 59.08 0.72, 145.52 -0.14 M146.69 1.03 C146.91 34.2, 146.99 66.51, 144.16 144.7 M146.58 0.76 C145.21 39.1, 146.34 78.91, 145.43 145.18 M146 145.14 C91.8 144.71, 37.97 146.44, -0.29 147.1 M145.46 144.94 C112.78 144.88, 79.16 145.85, 0.54 146.55 M-1.6 145.14 C2.16 102.97, 1.09 63.77, -1.2 0.63 M0.17 145.46 C1.63 90.54, 1.42 35.01, -0.79 -0.59" stroke="#000000" stroke-width="1" fill="none"></path></g><g transform="translate(466.04761904761654 197.96647344949272) rotate(0 68 13)"><text x="68" y="19" font-family="Virgil, Segoe UI Emoji" font-size="20px" fill="#000000" text-anchor="middle" style="white-space: pre;" direction="ltr">lambda</text></g><g stroke-linecap="round" transform="translate(671.9999999999974 138.10933059234995) rotate(0 73 72.85714285714283)"><path d="M-0.57 1.12 C30.49 -1.93, 61.99 -0.24, 145.7 -1.07 M-0.66 -0.54 C31.8 1.07, 63.6 -0.07, 146.25 -1 M147.88 -1.38 C146.92 47.89, 147.24 95.59, 146.68 146.09 M146.12 -0.42 C146.5 55.86, 147.62 112.73, 146.81 145.39 M145.89 143.92 C95.76 144.66, 41.43 144.59, 0.49 143.93 M145.02 145.47 C102.75 146.94, 58.74 147.4, -0.98 146.47 M0.38 144.6 C-1.12 109.2, -0.97 76.67, 1.32 1.3 M0.49 146.39 C0.45 112.11, -0.26 79.16, 0.44 -0.48" stroke="#000000" stroke-width="1" fill="none"></path></g><g transform="translate(676.9999999999974 197.96647344949272) rotate(0 68 13)"><text x="68" y="19" font-family="Virgil, Segoe UI Emoji" font-size="20px" fill="#000000" text-anchor="middle" style="white-space: pre;" direction="ltr">mongodb</text></g><g stroke-linecap="round" transform="translate(17.85714285714039 58.82361630663536) rotate(0 413.57142857142867 125.71428571428568)"><path d="M0.72 0.03 C176.81 1.22, 353.32 1.31, 827.57 0.12 M0.1 -0.02 C296.32 0.89, 593.44 1.16, 827.32 -0.17 M825.75 1.15 C829.28 65.95, 828.55 133.53, 828.62 250.2 M827.62 -0.15 C828.72 91.41, 828.25 183.76, 827.09 251.93 M827.36 251.92 C659.7 250, 491.68 251, 0.16 252.05 M827.35 251.48 C626.74 252.31, 425.99 252.39, 0.19 251.38 M-0.39 252.07 C0.04 189.97, -2.82 126.05, -1.01 -1.49 M0 252.14 C-2.24 152.69, -2.16 54.54, 0.81 0.74" stroke="#000000" stroke-width="1" fill="none"></path></g><g transform="translate(384.9999999999976 72.03790202092105) rotate(0 45.5 13)"><text x="0" y="19" font-family="Virgil, Segoe UI Emoji" font-size="20px" fill="#000000" text-anchor="start" style="white-space: pre;" direction="ltr">Aplicação</text></g><g stroke-linecap="round" transform="translate(39.14285714285461 138.10933059234995) rotate(0 73 72.85714285714283)"><path d="M-1.26 -2 C51.32 -1.85, 103.27 -1.63, 147.45 1.16 M0.9 0.96 C39.14 0.53, 79.29 -0.64, 145.92 -0.15 M147.61 1.06 C147.19 53.98, 146.48 106.55, 147.31 144.96 M146.55 0.16 C144.82 44.14, 146.77 87, 146.12 146.53 M145.64 147.66 C90.97 143.37, 35.21 146.56, -0.27 147.32 M146.88 145.97 C99.92 146.37, 53.79 146.92, 0.24 145.63 M-0.68 146.84 C3.13 112.97, -0.19 79.93, -0.23 -1.73 M0.47 145.74 C-1.43 105.41, -1.48 66.75, 0.84 -0.85" stroke="#000000" stroke-width="1" fill="none"></path></g><g transform="translate(44.14285714285461 197.96647344949272) rotate(0 68 13)"><text x="68" y="19" font-family="Virgil, Segoe UI Emoji" font-size="20px" fill="#000000" text-anchor="middle" style="white-space: pre;" direction="ltr">front end</text></g><g stroke-linecap="round"><g transform="translate(189.28571428571172 208.8236163066354) rotate(0 29.439731324147516 0.5914487863071258)"><path d="M0.23 -0.58 C10.37 -0.55, 49.86 -0.48, 59.99 -0.4 M-1.11 1.72 C8.95 1.99, 48.72 1.02, 59.04 0.93" stroke="#000000" stroke-width="1" fill="none"></path></g><g transform="translate(189.28571428571172 208.8236163066354) rotate(0 29.439731324147516 0.5914487863071258)"><path d="M30.05 11.65 C36.79 10.9, 43.66 7.6, 60.28 -0.33 M30.82 11.48 C40.82 7.49, 50.18 4.93, 58.88 1.78" stroke="#000000" stroke-width="1" fill="none"></path></g><g transform="translate(189.28571428571172 208.8236163066354) rotate(0 29.439731324147516 0.5914487863071258)"><path d="M29.71 -8.87 C36.42 -4.95, 43.37 -3.58, 60.28 -0.33 M30.48 -9.03 C40.59 -5.99, 50.06 -1.51, 58.88 1.78" stroke="#000000" stroke-width="1" fill="none"></path></g></g><g stroke-linecap="round"><g transform="translate(402.1428571428547 209.8937433944807) rotate(0 25.109692041309714 -0.5484991724743651)"><path d="M-0.65 0.01 C7.93 -0.27, 42.33 -1.11, 50.87 -1.14 M1.21 -1.03 C9.63 -1.22, 40.99 -0.36, 49.63 0.04" stroke="#000000" stroke-width="1" fill="none"></path></g><g transform="translate(402.1428571428547 209.8937433944807) rotate(0 25.109692041309714 -0.5484991724743651)"><path d="M25.19 7.05 C30.11 4.74, 37.9 3.61, 49.77 -1.82 M25.44 7.37 C30.52 5.96, 35.42 3.81, 49.42 -0.71" stroke="#000000" stroke-width="1" fill="none"></path></g><g transform="translate(402.1428571428547 209.8937433944807) rotate(0 25.109692041309714 -0.5484991724743651)"><path d="M25.8 -10.53 C30.65 -8.44, 38.29 -5.16, 49.77 -1.82 M26.05 -10.21 C30.96 -7.93, 35.73 -6.38, 49.42 -0.71" stroke="#000000" stroke-width="1" fill="none"></path></g></g><g stroke-linecap="round"><g transform="translate(606.428571428569 208.8236163066354) rotate(0 30.923487218901677 0.055990712167698575)"><path d="M0.79 0.23 C11.16 0.51, 51.84 0.84, 62.1 0.88 M-0.25 -0.69 C10.03 -0.68, 51.12 -0.63, 61.5 -0.77" stroke="#000000" stroke-width="1" fill="none"></path></g><g transform="translate(606.428571428569 208.8236163066354) rotate(0 30.923487218901677 0.055990712167698575)"><path d="M33.75 10.76 C43.05 7.97, 50.56 5.09, 60.95 0.41 M33.77 8.94 C44.76 6.03, 54.66 0.84, 60.65 -1.05" stroke="#000000" stroke-width="1" fill="none"></path></g><g transform="translate(606.428571428569 208.8236163066354) rotate(0 30.923487218901677 0.055990712167698575)"><path d="M33.64 -9.76 C42.84 -6.61, 50.38 -3.56, 60.95 0.41 M33.66 -11.58 C44.5 -6.76, 54.44 -4.22, 60.65 -1.05" stroke="#000000" stroke-width="1" fill="none"></path></g></g><g stroke-linecap="round"><g transform="translate(853.5714285714257 25.96647344949261) rotate(0 28.068984319855133 8.071457155105984)"><path d="M-0.96 0.48 C-0.31 5.71, -4.95 34.5, 4.82 32.11 C14.58 29.72, 49.01 -6.02, 57.63 -13.85 M0.74 -0.31 C1.2 4.51, -5.25 32.95, 4.15 30.34 C13.54 27.73, 48.4 -8.56, 57.12 -15.97" stroke="#087f5b" stroke-width="4" fill="none"></path></g></g><g stroke-linecap="round" transform="translate(360.5714285714258 380.25218773520726) rotate(0 73 72.85714285714283)"><path d="M-0.64 -1.1 C54.76 -0.71, 112.86 -1.63, 146.59 0.7 M-0.05 -0.32 C53.68 -1.24, 109.15 -1.92, 145.27 -0.84 M144.61 0.69 C144.58 46.29, 146 93.88, 146.76 145.11 M145.52 -0.73 C145.56 37.55, 145.78 72.9, 146.25 146.63 M144.03 144.56 C96.67 148.37, 44.65 146.63, -1.03 147 M146.28 145.59 C95.72 143.49, 46.41 144.03, 0.93 146.29 M-1.27 147.69 C1.44 99.05, 2.3 54.2, -1.03 1.73 M0.93 144.95 C0.89 107.29, 0.26 69.66, -0.32 -0.78" stroke="#000000" stroke-width="1" fill="none"></path></g><g transform="translate(365.5714285714258 413.60933059235015) rotate(0 68 39)"><text x="68" y="19" font-family="Virgil, Segoe UI Emoji" font-size="20px" fill="#000000" text-anchor="middle" style="white-space: pre;" direction="ltr">Change</text><text x="68" y="45" font-family="Virgil, Segoe UI Emoji" font-size="20px" fill="#000000" text-anchor="middle" style="white-space: pre;" direction="ltr">Data </text><text x="68" y="71" font-family="Virgil, Segoe UI Emoji" font-size="20px" fill="#000000" text-anchor="middle" style="white-space: pre;" direction="ltr">Capture</text></g><g stroke-linecap="round"><g transform="translate(553.0488112117579 266.40784662503233) rotate(89.99999999999994 81.49961866136587 110.62477063624064)"><path d="M-0.16 0.64 C24.63 3.89, 120.87 -18.74, 147.79 18.33 C174.71 55.41, 159.01 189.01, 161.36 223.1 M-1.71 -0.07 C23.54 3.5, 122.97 -17.46, 149.98 19.96 C176.99 57.38, 158.31 190.46, 160.32 224.45" stroke="#000000" stroke-width="1" fill="none"></path></g><g transform="translate(553.0488112117579 266.40784662503233) rotate(89.99999999999994 81.49961866136587 110.62477063624064)"><path d="M152.2 194.24 C153.15 201.31, 154.99 208.36, 160.04 223.11 M150.61 196.02 C154.77 206.18, 157.23 214.6, 159.81 225.44" stroke="#000000" stroke-width="1" fill="none"></path></g><g transform="translate(553.0488112117579 266.40784662503233) rotate(89.99999999999994 81.49961866136587 110.62477063624064)"><path d="M172.71 195.02 C169.18 201.89, 166.53 208.77, 160.04 223.11 M171.11 196.8 C168.27 206.85, 163.72 215.01, 159.81 225.44" stroke="#000000" stroke-width="1" fill="none"></path></g></g><g stroke-linecap="round" transform="translate(10.714285714283278 594.5379020209213) rotate(0 413.57142857142867 125.71428571428567)"><path d="M-0.26 -0.69 C254.72 -0.97, 510.03 -0.18, 827.79 -0.28 M-0.07 -0.04 C253.67 2.8, 506.98 2.85, 827.48 -0.23 M826.63 -0.1 C827.69 94.49, 828.67 186.96, 826.04 251.92 M826.51 -0.05 C829.43 90.09, 828.7 180.55, 827.16 250.62 M827.26 251.39 C635.68 251.88, 445.5 252.58, -0.33 250.81 M827.11 251.82 C608.79 253.86, 389.34 253.87, -0.25 251.23 M0.93 252.16 C-0.05 161.73, -1.22 72.2, 0.33 0.31 M0.07 251.97 C-0.28 193.22, -0.82 135.64, -0.23 0.46" stroke="#000000" stroke-width="1" fill="none"></path></g><g transform="translate(319.28571428571445 603.6093305923499) rotate(0 117.5 13)"><text x="0" y="19" font-family="Virgil, Segoe UI Emoji" font-size="20px" fill="#000000" text-anchor="start" style="white-space: pre;" direction="ltr">Camada de persistencia</text></g><g stroke-linecap="round"><g transform="translate(352.14285714285734 451.6807591637786) rotate(0 -119.4168963550512 93.21663393756509)"><path d="M0.33 -0.86 C-35.25 2.76, -172.81 -10.59, -212.54 20.62 C-252.28 51.82, -233.91 158.59, -238.06 186.38 M-0.95 1.3 C-36.76 4.67, -173.72 -12.18, -213.33 18.82 C-252.93 49.82, -234.1 159.01, -238.59 187.3" stroke="#000000" stroke-width="1" fill="none"></path></g><g transform="translate(352.14285714285734 451.6807591637786) rotate(0 -119.4168963550512 93.21663393756509)"><path d="M-250.32 159.64 C-244.2 170.58, -242.57 182.37, -238.26 188.74 M-249.62 158.18 C-246.26 165.8, -243.03 172.81, -238.11 187.81" stroke="#000000" stroke-width="1" fill="none"></path></g><g transform="translate(352.14285714285734 451.6807591637786) rotate(0 -119.4168963550512 93.21663393756509)"><path d="M-229.8 159.62 C-231.5 170.62, -237.7 182.42, -238.26 188.74 M-229.1 158.16 C-231.03 165.82, -233.08 172.84, -238.11 187.81" stroke="#000000" stroke-width="1" fill="none"></path></g></g><g stroke-linecap="round" transform="translate(10 910.2521877352073) rotate(0 413.57142857142867 125.71428571428567)"><path d="M-0.59 0.09 C276.48 -1.65, 553.66 -0.68, 827.28 0.67 M0.06 -0.14 C233.52 -0.19, 466.41 -0.6, 826.88 -0.14 M826.48 1.12 C827.91 87.04, 827.9 170.57, 826.53 251.63 M827.94 -0.73 C829.02 63.65, 827.8 126.87, 826.34 252.13 M826.57 251.21 C548.24 248.55, 268.57 249.13, 0.05 251.16 M827.28 251.73 C534.61 251.08, 241.69 251.1, -0.31 251.75 M0.34 252.38 C0.42 178.1, 1.59 104.28, -0.3 0.59 M0.5 251.74 C1.63 196.33, 1.7 141.62, -0.74 0.56" stroke="#000000" stroke-width="1" fill="none"></path></g><g stroke-linecap="round" transform="translate(40.71428571428339 955.9664734494928) rotate(0 73 72.85714285714289)"><path d="M-1.45 0.03 C54.43 -1.33, 106.85 0.25, 144.81 -1.59 M-0.28 -0.49 C29.36 -0.42, 57.68 -0.82, 146.93 0.18 M145.32 1.45 C144.62 56, 144.65 110.48, 146.11 146.09 M146.42 -0.49 C144.85 56.01, 145.21 112.4, 146.75 146.06 M144.39 145.83 C97.88 146.58, 46.7 147.6, -1.28 146.15 M146.83 145.31 C102.93 146.71, 59.01 146.24, 0.72 145.35 M0.85 145.62 C1.03 105.6, -0.9 67.45, 0.33 -0.02 M-0.78 145.57 C0.8 115.48, 1.39 85.7, -0.93 -0.62" stroke="#000000" stroke-width="1" fill="none"></path></g><g transform="translate(45.71428571428339 989.8236163066357) rotate(0 68 39)"><text x="68" y="19" font-family="Virgil, Segoe UI Emoji" font-size="20px" fill="#000000" text-anchor="middle" style="white-space: pre;" direction="ltr">spark</text><text x="68" y="45" font-family="Virgil, Segoe UI Emoji" font-size="20px" fill="#000000" text-anchor="middle" style="white-space: pre;" direction="ltr">flink</text><text x="68" y="71" font-family="Virgil, Segoe UI Emoji" font-size="20px" fill="#000000" text-anchor="middle" style="white-space: pre;" direction="ltr">athena</text></g><g stroke-linecap="round" transform="translate(245.42857142856906 955.9664734494928) rotate(0 73 72.85714285714289)"><path d="M0.38 -0.59 C29.59 0.33, 59.64 0.43, 145.07 -0.39 M0.97 0.21 C46.47 1.48, 94.56 0.83, 145.81 0.51 M147 1.77 C145.91 42.27, 142.72 82.41, 147.74 145.18 M146.58 0.82 C145.5 42.34, 146.39 83.83, 146.68 145.25 M147.97 146.03 C97.76 144.83, 46.23 143.73, 0.75 144.05 M145.74 144.9 C99.63 144.54, 54.19 144.23, 0.71 144.94 M1.75 144.71 C-0.23 117.81, -0.03 88.54, -0.49 -0.73 M-0.57 146.18 C-0.44 92.94, -2.06 38.73, -0.33 0.16" stroke="#000000" stroke-width="1" fill="none"></path></g><g transform="translate(250.42857142856906 989.3236163066357) rotate(0 68 39)"><text x="68" y="19" font-family="Virgil, Segoe UI Emoji" font-size="20px" fill="#000000" text-anchor="middle" style="white-space: pre;" direction="ltr">spark</text><text x="68" y="45" font-family="Virgil, Segoe UI Emoji" font-size="20px" fill="#000000" text-anchor="middle" style="white-space: pre;" direction="ltr">flink</text><text x="68" y="71" font-family="Virgil, Segoe UI Emoji" font-size="20px" fill="#000000" text-anchor="middle" style="white-space: pre;" direction="ltr">athena</text></g><g stroke-linecap="round" transform="translate(454.8571428571429 957.3950448780645) rotate(0 73 72.85714285714283)"><path d="M1.68 -0.23 C28.48 -0.57, 58.83 1.1, 144.69 -1.39 M-0.12 -0.95 C34.79 -0.75, 70.65 -1.25, 146.57 0.2 M146.37 1.74 C144.09 32.56, 144.1 60.57, 145.16 146.88 M146.14 -0.41 C144.87 31.93, 145.28 65.32, 146.74 145.13 M147.29 146.47 C111.61 147.53, 79.8 148.08, -0.11 146.57 M146.46 146.15 C100.61 144.14, 54.97 144.75, 0.26 145.7 M-0.06 144.26 C0.84 98.94, -0.09 54.72, -0.54 -1.6 M-0.72 145.1 C1.85 87.68, 1.96 29.99, 0.3 0.2" stroke="#000000" stroke-width="1" fill="none"></path></g><g transform="translate(459.8571428571429 990.7521877352073) rotate(0 68 39)"><text x="68" y="19" font-family="Virgil, Segoe UI Emoji" font-size="20px" fill="#000000" text-anchor="middle" style="white-space: pre;" direction="ltr">spark</text><text x="68" y="45" font-family="Virgil, Segoe UI Emoji" font-size="20px" fill="#000000" text-anchor="middle" style="white-space: pre;" direction="ltr">athena</text><text x="68" y="71" font-family="Virgil, Segoe UI Emoji" font-size="20px" fill="#000000" text-anchor="middle" style="white-space: pre;" direction="ltr">redshift</text></g><g stroke-linecap="round"><g transform="translate(112.14285714285734 806.5774077597395) rotate(0 -0.4427704059107782 68.71397689355814)"><path d="M0.41 -0.82 C0.28 22.06, -0.25 113.84, -0.16 136.7 M-0.84 1.37 C-1.19 24.5, -1.44 115.57, -1.19 138.25" stroke="#000000" stroke-width="1" fill="none"></path></g><g transform="translate(112.14285714285734 806.5774077597395) rotate(0 -0.4427704059107782 68.71397689355814)"><path d="M-12.9 109.81 C-8.03 121.43, -5.07 131.69, -1.11 138.7 M-11.45 109.67 C-8.52 119.27, -5.09 128.19, -1.46 139.24" stroke="#000000" stroke-width="1" fill="none"></path></g><g transform="translate(112.14285714285734 806.5774077597395) rotate(0 -0.4427704059107782 68.71397689355814)"><path d="M7.62 109.76 C5.34 121.46, 1.14 131.74, -1.11 138.7 M9.07 109.61 C5.23 119.26, 1.9 128.2, -1.46 139.24" stroke="#000000" stroke-width="1" fill="none"></path></g></g><g stroke-linecap="round"><g transform="translate(316.42857142857156 800.252187735207) rotate(0 -0.8250400125045303 74.02574507173676)"><path d="M0 -1.2 C-0.18 23.59, 0.12 124.29, -0.06 149.25 M-1.46 0.79 C-1.89 25.18, -1.49 122.64, -1.04 147.48" stroke="#000000" stroke-width="1" fill="none"></path></g><g transform="translate(316.42857142857156 800.252187735207) rotate(0 -0.8250400125045303 74.02574507173676)"><path d="M-13.57 119.29 C-6.27 128.39, -3.39 142.94, -0.29 147.75 M-11.39 120.04 C-8.38 127.06, -6.12 134.97, -1.49 146.85" stroke="#000000" stroke-width="1" fill="none"></path></g><g transform="translate(316.42857142857156 800.252187735207) rotate(0 -0.8250400125045303 74.02574507173676)"><path d="M6.95 119.09 C6.36 128.27, 1.35 142.9, -0.29 147.75 M9.13 119.84 C6.44 127.05, 3.02 135.02, -1.49 146.85" stroke="#000000" stroke-width="1" fill="none"></path></g></g><g stroke-linecap="round"><g transform="translate(195.0000000000001 1015.289912953924) rotate(0 22.605653573453196 -137.74327250892765)"><path d="M-0.76 15.03 C4.06 9.8, 26.27 29.42, 28.02 -16.1 C29.76 -61.63, 6.77 -212.39, 9.72 -258.12 C12.67 -303.86, 39.76 -285.17, 45.73 -290.51 M1.05 14.37 C5.83 8.73, 26.1 27.44, 27.37 -17.75 C28.64 -62.93, 5.55 -211.4, 8.65 -256.75 C11.75 -302.1, 40.08 -284.29, 45.97 -289.84" stroke="#000000" stroke-width="1" fill="none"></path></g><g transform="translate(195.0000000000001 1015.289912953924) rotate(0 22.605653573453196 -137.74327250892765)"><path d="M25.86 -278.57 C30.94 -282.7, 34.48 -284.12, 44.61 -290.18 M24.89 -278.75 C30.42 -282.68, 35.03 -285.51, 45.28 -290.2" stroke="#000000" stroke-width="1" fill="none"></path></g><g transform="translate(195.0000000000001 1015.289912953924) rotate(0 22.605653573453196 -137.74327250892765)"><path d="M24.23 -294.7 C29.81 -295.14, 33.72 -292.88, 44.61 -290.18 M23.25 -294.88 C29.27 -294.61, 34.31 -293.24, 45.28 -290.2" stroke="#000000" stroke-width="1" fill="none"></path></g></g><g stroke-linecap="round"><g transform="translate(393.5568830165891 1030.596079377288) rotate(0 22.132638859778396 -152.17552783372173)"><path d="M0.65 0.85 C5.3 -4.31, 26.06 13.95, 27.48 -31.65 C28.91 -77.25, 6.34 -227.19, 9.22 -272.78 C12.09 -318.37, 38.47 -299.88, 44.73 -305.2 M-0.47 0.24 C4.07 -5.19, 24.55 12.45, 26.56 -33.36 C28.56 -79.18, 8.57 -229.54, 11.55 -274.67 C14.53 -319.8, 38.72 -299.24, 44.45 -304.14" stroke="#000000" stroke-width="1" fill="none"></path></g><g transform="translate(393.5568830165891 1030.596079377288) rotate(0 22.132638859778396 -152.17552783372173)"><path d="M23.58 -295.98 C29.42 -300.1, 35.47 -302.14, 44.31 -302.34 M21.47 -296.57 C29.76 -298.52, 36.88 -300.9, 44.47 -305.09" stroke="#000000" stroke-width="1" fill="none"></path></g><g transform="translate(393.5568830165891 1030.596079377288) rotate(0 22.132638859778396 -152.17552783372173)"><path d="M23.59 -312.19 C29.33 -312.01, 35.38 -309.76, 44.31 -302.34 M21.47 -312.78 C29.81 -309.26, 36.93 -306.19, 44.47 -305.09" stroke="#000000" stroke-width="1" fill="none"></path></g></g><g stroke-linecap="round"><g transform="translate(605.9854544451606 1032.3950448780645) rotate(0 23.015963274670533 -152.99891681503647)"><path d="M0.44 -1.01 C5.1 -6.85, 25.23 11.36, 26.89 -34.48 C28.56 -80.32, 7.19 -230.62, 10.42 -276.05 C13.66 -321.48, 40.25 -301.78, 46.29 -307.08 M-0.79 1.08 C3.76 -4.61, 23.9 13.04, 25.66 -32.96 C27.41 -78.96, 6.2 -229.43, 9.73 -274.93 C13.25 -320.42, 40.83 -300.46, 46.82 -305.94" stroke="#000000" stroke-width="1" fill="none"></path></g><g transform="translate(605.9854544451606 1032.3950448780645) rotate(0 23.015963274670533 -152.99891681503647)"><path d="M23.32 -297.62 C29.54 -298.52, 33.59 -299.79, 46.93 -304.4 M24.59 -296.33 C29.97 -298.81, 35.46 -301.96, 46.76 -305.96" stroke="#000000" stroke-width="1" fill="none"></path></g><g transform="translate(605.9854544451606 1032.3950448780645) rotate(0 23.015963274670533 -152.99891681503647)"><path d="M22.48 -313.81 C28.96 -311.28, 33.19 -309.12, 46.93 -304.4 M23.76 -312.52 C29.5 -311.04, 35.19 -310.24, 46.76 -305.96" stroke="#000000" stroke-width="1" fill="none"></path></g></g><g stroke-linecap="round"><g transform="translate(523.5714285714289 803.8236163066357) rotate(0 0.05532490281387936 75.03178033567968)"><path d="M0.41 -0.6 C0.18 24.61, -0.89 125.61, -1.03 150.67 M-0.83 1.7 C-0.73 26.62, 1.24 124.02, 1.14 148.89" stroke="#000000" stroke-width="1" fill="none"></path></g><g transform="translate(523.5714285714289 803.8236163066357) rotate(0 0.05532490281387936 75.03178033567968)"><path d="M-10.39 119.08 C-4.96 129.29, -3.05 137.57, 1.66 148.8 M-9.6 120.66 C-6.56 129.71, -3.04 137.77, 1 148.74" stroke="#000000" stroke-width="1" fill="none"></path></g><g transform="translate(523.5714285714289 803.8236163066357) rotate(0 0.05532490281387936 75.03178033567968)"><path d="M10.13 118.89 C8.81 129.23, 3.96 137.57, 1.66 148.8 M10.92 120.46 C7.84 129.51, 5.24 137.63, 1 148.74" stroke="#000000" stroke-width="1" fill="none"></path></g></g><g transform="translate(319.28571428571445 1122.966473449493) rotate(0 130.5 13)"><text x="0" y="19" font-family="Virgil, Segoe UI Emoji" font-size="20px" fill="#000000" text-anchor="start" style="white-space: pre;" direction="ltr">Camada de processamento</text></g><g stroke-linecap="round" transform="translate(712.8571428571427 753.1093305923498) rotate(89.99999999999994 282.1428571428571 125.71428571428561)"><path d="M-0.63 0.33 C171.09 -1.87, 343.93 -1.41, 564.18 0.07 M0.3 0.16 C136.79 -0.46, 273.79 -0.49, 564.62 -0.36 M562.74 -0.7 C564.49 53.17, 563.14 104.89, 565.12 251.7 M564.52 -0.7 C565.65 82.69, 565.2 164.95, 565.01 251.7 M564.92 251.92 C439.83 248.83, 316.35 249.49, -0.65 252.04 M564.18 251.36 C436.55 250.26, 309.23 249.84, -0.17 251.43 M-1.11 249.88 C-0.73 188.6, 0.41 128.46, 0.09 0.51 M-0.6 250.96 C-2.4 187.78, -1.04 124.34, -0.62 0.34" stroke="#000000" stroke-width="1" fill="none"></path></g><g transform="translate(941.4285714285741 607.2521877352068) rotate(0 54.5 26)"><text x="54.5" y="19" font-family="Virgil, Segoe UI Emoji" font-size="20px" fill="#000000" text-anchor="middle" style="white-space: pre;" direction="ltr">Camada de</text><text x="54.5" y="45" font-family="Virgil, Segoe UI Emoji" font-size="20px" fill="#000000" text-anchor="middle" style="white-space: pre;" direction="ltr">entrega</text></g><g stroke-linecap="round" transform="translate(919.1428571428596 677.3950448780639) rotate(0 73 72.85714285714283)"><path d="M1.5 -0.62 C56.08 0.89, 108.82 -1.58, 144.93 1.66 M-0.8 -0.75 C51.65 0.89, 103.17 -0.2, 146.77 0.48 M146.39 -0.91 C143.75 57, 146.65 110.76, 146.86 145.58 M145.42 0.73 C147.31 48.84, 147.72 99.98, 145.44 145.91 M147.76 145.51 C100.87 144.2, 51.42 144.92, -1.04 146.64 M146.56 146.52 C114.68 145.25, 84.13 146.04, -0.49 145.18 M1.86 145.34 C-1.52 104.69, -1.35 65.53, -0.91 0.4 M0.32 144.95 C-0.38 97.12, -0.76 46.15, -0.4 -0.24" stroke="#000000" stroke-width="1" fill="none"></path></g><g transform="translate(924.1428571428596 737.2521877352068) rotate(0 68 13)"><text x="68" y="19" font-family="Virgil, Segoe UI Emoji" font-size="20px" fill="#000000" text-anchor="middle" style="white-space: pre;" direction="ltr">PowerBI</text></g><g stroke-linecap="round" transform="translate(920.5714285714312 843.1093305923498) rotate(0 73 72.85714285714283)"><path d="M-0.96 0.98 C44.42 -1.06, 86.66 -1.13, 146.01 -0.27 M0.74 -0.73 C43.18 -0.1, 88.12 -0.23, 146.99 -0.59 M146.8 0.51 C146.87 30.89, 148.58 63.85, 145.06 146.19 M145.79 -0.53 C147.24 30.27, 147.94 62.4, 145.18 144.78 M144.97 145.16 C107.54 143.96, 68.18 146.01, 1.31 143.85 M146.84 145.57 C112.77 145.67, 78.3 145.61, 0.36 146.2 M1 144.35 C0.07 91.78, -2.7 37.77, -0.92 -1.89 M0.86 145.28 C-0.71 109.64, -2 73.35, 0.03 -0.69" stroke="#000000" stroke-width="1" fill="none"></path></g><g transform="translate(925.5714285714312 902.9664734494926) rotate(0 68 13)"><text x="68" y="19" font-family="Virgil, Segoe UI Emoji" font-size="20px" fill="#000000" text-anchor="middle" style="white-space: pre;" direction="ltr">SageMaker</text></g><g stroke-linecap="round" transform="translate(920.5714285714309 1004.5379020209215) rotate(0 73 72.85714285714278)"><path d="M-1.35 0.66 C41.1 2.39, 79.11 -0.04, 145.87 0.68 M-0.25 0.02 C52.04 0.33, 102.07 0.66, 145.71 -0.44 M145.67 0.24 C147.92 33.97, 144.68 67.82, 146.79 147.1 M146.86 0.62 C145.77 39.73, 145.78 78.81, 145.83 145.38 M145.07 146.23 C86.68 143.71, 30.55 144.81, 1.87 147.54 M146.17 145.27 C90.23 145.51, 33.23 147.39, 0.81 146.22 M-0.9 144.53 C0.52 102.58, -1.46 55.69, -1.92 1.04 M-0.45 145.91 C1.15 101.57, 1.08 57.39, 0.64 -0.14" stroke="#000000" stroke-width="1" fill="none"></path></g><g transform="translate(925.5714285714309 1064.3950448780645) rotate(0 68 13)"><text x="68" y="19" font-family="Virgil, Segoe UI Emoji" font-size="20px" fill="#000000" text-anchor="middle" style="white-space: pre;" direction="ltr">Redshift</text></g></svg>